<?xml version="1.0" encoding="UTF-8"?>
<svg xmlns="http://www.w3.org/2000/svg" xmlns:xlink="http://www.w3.org/1999/xlink" width="256px" height="256px" viewBox="0 0 256 256" version="1.1">
<g id="surface1">
<path style=" stroke:none;fill-rule:nonzero;fill:rgb(0%,0%,0%);fill-opacity:1;" d="M 70.398438 32 C 68.71875 32 67.324219 33.296875 67.207031 34.976562 C 67.203125 35.050781 67.199219 35.125 67.199219 35.199219 C 67.199219 36.878906 68.5 38.277344 70.175781 38.394531 C 70.25 38.398438 70.324219 38.402344 70.398438 38.398438 C 72.167969 38.398438 73.601562 36.96875 73.601562 35.199219 C 73.601562 33.433594 72.167969 32 70.398438 32 Z M 83.199219 32 C 81.519531 32 80.125 33.296875 80.007812 34.976562 C 80 35.050781 80 35.125 80 35.199219 C 80 36.878906 81.296875 38.277344 82.976562 38.394531 C 83.050781 38.398438 83.125 38.402344 83.199219 38.398438 C 84.96875 38.398438 86.398438 36.96875 86.398438 35.199219 C 86.398438 33.433594 84.96875 32 83.199219 32 Z M 96 32 C 94.320312 32 92.925781 33.296875 92.804688 34.976562 C 92.800781 35.050781 92.800781 35.125 92.800781 35.199219 C 92.800781 36.878906 94.097656 38.277344 95.773438 38.394531 C 95.851562 38.398438 95.925781 38.402344 96 38.398438 C 97.765625 38.398438 99.199219 36.96875 99.199219 35.199219 C 99.199219 33.433594 97.765625 32 96 32 Z M 108.800781 32 C 107.121094 32 105.722656 33.296875 105.605469 34.976562 C 105.601562 35.050781 105.597656 35.125 105.601562 35.199219 C 105.597656 36.878906 106.898438 38.277344 108.574219 38.394531 C 108.648438 38.398438 108.726562 38.402344 108.800781 38.398438 C 110.566406 38.398438 112 36.96875 112 35.199219 C 112 33.433594 110.566406 32 108.800781 32 Z M 121.601562 32 C 119.917969 32 118.523438 33.296875 118.40625 34.976562 C 118.402344 35.050781 118.398438 35.125 118.398438 35.199219 C 118.398438 36.878906 119.699219 38.277344 121.375 38.394531 C 121.449219 38.398438 121.523438 38.402344 121.601562 38.398438 C 123.367188 38.398438 124.800781 36.96875 124.800781 35.199219 C 124.800781 33.433594 123.367188 32 121.601562 32 Z M 134.398438 32 C 132.71875 32 131.324219 33.296875 131.207031 34.976562 C 131.203125 35.050781 131.199219 35.125 131.199219 35.199219 C 131.199219 36.878906 132.5 38.277344 134.175781 38.394531 C 134.25 38.398438 134.324219 38.402344 134.398438 38.398438 C 136.167969 38.398438 137.601562 36.96875 137.601562 35.199219 C 137.601562 33.433594 136.167969 32 134.398438 32 Z M 147.199219 32 C 145.519531 32 144.125 33.296875 144.007812 34.976562 C 144 35.050781 144 35.125 144 35.199219 C 144 36.878906 145.296875 38.277344 146.976562 38.394531 C 147.050781 38.398438 147.125 38.402344 147.199219 38.398438 C 148.96875 38.398438 150.398438 36.96875 150.398438 35.199219 C 150.398438 33.433594 148.96875 32 147.199219 32 Z M 160 32 C 158.320312 32 156.925781 33.296875 156.804688 34.976562 C 156.800781 35.050781 156.800781 35.125 156.800781 35.199219 C 156.800781 36.878906 158.097656 38.277344 159.773438 38.394531 C 159.851562 38.398438 159.925781 38.402344 160 38.398438 C 161.765625 38.398438 163.199219 36.96875 163.199219 35.199219 C 163.199219 33.433594 161.765625 32 160 32 Z M 172.800781 32 C 171.121094 32 169.722656 33.296875 169.605469 34.976562 C 169.601562 35.050781 169.597656 35.125 169.601562 35.199219 C 169.597656 36.878906 170.898438 38.277344 172.574219 38.394531 C 172.648438 38.398438 172.726562 38.402344 172.800781 38.398438 C 174.566406 38.398438 176 36.96875 176 35.199219 C 176 33.433594 174.566406 32 172.800781 32 Z M 185.601562 32 C 183.917969 32 182.523438 33.296875 182.40625 34.976562 C 182.402344 35.050781 182.398438 35.125 182.398438 35.199219 C 182.398438 36.878906 183.699219 38.277344 185.375 38.394531 C 185.449219 38.398438 185.523438 38.402344 185.601562 38.398438 C 187.367188 38.398438 188.800781 36.96875 188.800781 35.199219 C 188.800781 33.433594 187.367188 32 185.601562 32 Z M 57.601562 35.199219 C 55.832031 35.199219 54.398438 36.632812 54.398438 38.398438 C 54.398438 40.082031 55.699219 41.476562 57.375 41.59375 C 57.449219 41.597656 57.523438 41.601562 57.601562 41.601562 C 59.367188 41.601562 60.800781 40.167969 60.800781 38.398438 C 60.800781 36.632812 59.367188 35.199219 57.601562 35.199219 Z M 198.398438 35.199219 C 196.71875 35.199219 195.324219 36.5 195.207031 38.175781 C 195.203125 38.25 195.199219 38.324219 195.199219 38.398438 C 195.199219 40.082031 196.5 41.476562 198.175781 41.59375 C 198.25 41.597656 198.324219 41.601562 198.398438 41.601562 C 200.167969 41.601562 201.601562 40.167969 201.601562 38.398438 C 201.601562 36.632812 200.167969 35.199219 198.398438 35.199219 Z M 44.800781 41.601562 C 43.03125 41.601562 41.601562 43.03125 41.601562 44.800781 C 41.601562 46.566406 43.03125 48 44.800781 48 C 46.566406 48 48 46.566406 48 44.800781 C 48 43.03125 46.566406 41.601562 44.800781 41.601562 Z M 211.199219 41.601562 C 209.519531 41.597656 208.125 42.898438 208.007812 44.574219 C 208 44.648438 208 44.726562 208 44.800781 C 208 46.480469 209.296875 47.875 210.976562 47.992188 C 211.050781 48 211.125 48 211.199219 48 C 212.96875 48 214.398438 46.566406 214.398438 44.800781 C 214.398438 43.03125 212.96875 41.601562 211.199219 41.601562 Z M 128 51.199219 C 126.234375 51.199219 124.800781 52.632812 124.800781 54.398438 C 124.800781 56.167969 126.234375 57.601562 128 57.601562 C 129.765625 57.601562 131.199219 56.167969 131.199219 54.398438 C 131.199219 52.632812 129.765625 51.199219 128 51.199219 Z M 113.65625 52.613281 C 113.441406 52.613281 113.230469 52.632812 113.019531 52.675781 C 111.285156 53.019531 110.160156 54.703125 110.507812 56.4375 C 110.851562 58.171875 112.535156 59.292969 114.269531 58.949219 C 116 58.605469 117.125 56.921875 116.78125 55.1875 C 116.484375 53.695312 115.175781 52.617188 113.65625 52.613281 Z M 142.445312 52.613281 C 140.886719 52.574219 139.527344 53.660156 139.226562 55.1875 C 138.878906 56.921875 140.003906 58.605469 141.738281 58.949219 C 143.46875 59.292969 145.15625 58.171875 145.5 56.4375 C 145.84375 54.703125 144.71875 53.019531 142.988281 52.675781 C 142.808594 52.640625 142.625 52.617188 142.445312 52.613281 Z M 38.398438 54.398438 C 36.632812 54.398438 35.199219 55.832031 35.199219 57.601562 C 35.199219 59.367188 36.632812 60.800781 38.398438 60.800781 C 40.167969 60.800781 41.601562 59.367188 41.601562 57.601562 C 41.601562 55.832031 40.167969 54.398438 38.398438 54.398438 Z M 57.601562 54.398438 C 55.832031 54.398438 54.398438 55.832031 54.398438 57.601562 C 54.398438 59.367188 55.832031 60.800781 57.601562 60.800781 C 59.367188 60.800781 60.800781 59.367188 60.800781 57.601562 C 60.800781 55.832031 59.367188 54.398438 57.601562 54.398438 Z M 198.398438 54.398438 C 196.632812 54.398438 195.199219 55.832031 195.199219 57.601562 C 195.199219 59.367188 196.632812 60.800781 198.398438 60.800781 C 200.167969 60.800781 201.601562 59.367188 201.601562 57.601562 C 201.601562 55.832031 200.167969 54.398438 198.398438 54.398438 Z M 217.601562 54.398438 C 215.917969 54.398438 214.523438 55.699219 214.40625 57.375 C 214.402344 57.449219 214.398438 57.523438 214.398438 57.601562 C 214.398438 59.28125 215.699219 60.675781 217.375 60.792969 C 217.449219 60.796875 217.523438 60.800781 217.601562 60.800781 C 219.367188 60.800781 220.800781 59.367188 220.800781 57.601562 C 220.800781 55.832031 219.367188 54.398438 217.601562 54.398438 Z M 156.238281 56.792969 C 154.917969 56.761719 153.710938 57.546875 153.207031 58.769531 C 152.882812 59.554688 152.882812 60.433594 153.207031 61.21875 C 153.535156 62.003906 154.160156 62.625 154.945312 62.949219 C 156.574219 63.621094 158.441406 62.847656 159.117188 61.21875 C 159.796875 59.585938 159.019531 57.714844 157.386719 57.039062 C 157.023438 56.886719 156.632812 56.804688 156.238281 56.792969 Z M 99.855469 56.800781 C 99.429688 56.796875 99.007812 56.878906 98.613281 57.042969 C 96.980469 57.71875 96.203125 59.59375 96.882812 61.226562 C 97.558594 62.855469 99.425781 63.628906 101.054688 62.957031 C 101.839844 62.632812 102.464844 62.011719 102.792969 61.226562 C 103.117188 60.441406 103.117188 59.558594 102.792969 58.773438 C 102.300781 57.585938 101.144531 56.808594 99.855469 56.800781 Z M 87.144531 63.601562 C 86.5 63.59375 85.867188 63.78125 85.332031 64.136719 C 83.863281 65.121094 83.46875 67.105469 84.449219 68.574219 C 85.429688 70.046875 87.417969 70.441406 88.886719 69.460938 C 89.59375 68.992188 90.085938 68.257812 90.25 67.421875 C 90.414062 66.589844 90.242188 65.726562 89.769531 65.019531 C 89.179688 64.140625 88.199219 63.609375 87.144531 63.601562 Z M 168.949219 63.601562 C 167.863281 63.578125 166.835938 64.113281 166.230469 65.019531 C 165.25 66.488281 165.644531 68.472656 167.113281 69.457031 C 168.582031 70.4375 170.566406 70.042969 171.550781 68.574219 C 172.53125 67.105469 172.136719 65.121094 170.667969 64.136719 C 170.160156 63.796875 169.5625 63.609375 168.949219 63.601562 Z M 67.199219 64 C 65.433594 64 64 65.433594 64 67.199219 C 64 68.96875 65.433594 70.398438 67.199219 70.398438 C 68.96875 70.398438 70.398438 68.96875 70.398438 67.199219 C 70.398438 65.433594 68.96875 64 67.199219 64 Z M 188.800781 64 C 187.03125 64 185.601562 65.433594 185.601562 67.199219 C 185.601562 68.96875 187.03125 70.398438 188.800781 70.398438 C 190.566406 70.398438 192 68.96875 192 67.199219 C 192 65.433594 190.566406 64 188.800781 64 Z M 35.199219 67.199219 C 33.433594 67.199219 32 68.632812 32 70.398438 C 32 72.167969 33.433594 73.601562 35.199219 73.601562 C 36.96875 73.601562 38.398438 72.167969 38.398438 70.398438 C 38.398438 68.632812 36.96875 67.199219 35.199219 67.199219 Z M 220.800781 67.199219 C 219.121094 67.199219 217.722656 68.5 217.605469 70.175781 C 217.601562 70.25 217.597656 70.324219 217.601562 70.398438 C 217.597656 72.082031 218.898438 73.476562 220.574219 73.59375 C 220.648438 73.597656 220.726562 73.601562 220.800781 73.601562 C 222.566406 73.601562 224 72.167969 224 70.398438 C 224 68.632812 222.566406 67.199219 220.800781 67.199219 Z M 76.007812 72.757812 C 75.140625 72.742188 74.304688 73.082031 73.695312 73.695312 C 72.445312 74.945312 72.445312 76.96875 73.695312 78.21875 C 74.945312 79.46875 76.96875 79.46875 78.21875 78.21875 C 79.46875 76.96875 79.46875 74.945312 78.21875 73.695312 C 77.632812 73.105469 76.835938 72.769531 76.007812 72.757812 Z M 180.085938 72.757812 C 179.222656 72.746094 178.390625 73.082031 177.78125 73.695312 C 176.53125 74.945312 176.53125 76.96875 177.78125 78.21875 C 179.03125 79.46875 181.054688 79.46875 182.304688 78.21875 C 183.554688 76.96875 183.554688 74.945312 182.304688 73.695312 C 181.71875 73.105469 180.921875 72.769531 180.085938 72.757812 Z M 35.199219 80 C 33.433594 80 32 81.433594 32 83.199219 C 32 84.96875 33.433594 86.398438 35.199219 86.398438 C 36.96875 86.398438 38.398438 84.96875 38.398438 83.199219 C 38.398438 81.433594 36.96875 80 35.199219 80 Z M 83.199219 80 C 81.433594 80 80 81.433594 80 83.199219 C 80 84.96875 81.433594 86.398438 83.199219 86.398438 C 84.96875 86.398438 86.398438 84.96875 86.398438 83.199219 C 86.398438 81.433594 84.96875 80 83.199219 80 Z M 172.800781 80 C 171.03125 80 169.601562 81.433594 169.601562 83.199219 C 169.601562 84.96875 171.03125 86.398438 172.800781 86.398438 C 174.566406 86.398438 176 84.96875 176 83.199219 C 176 81.433594 174.566406 80 172.800781 80 Z M 220.800781 80 C 219.121094 80 217.722656 81.296875 217.605469 82.976562 C 217.601562 83.050781 217.597656 83.125 217.601562 83.199219 C 217.597656 84.878906 218.898438 86.277344 220.574219 86.394531 C 220.648438 86.398438 220.726562 86.402344 220.800781 86.398438 C 222.566406 86.398438 224 84.96875 224 83.199219 C 224 81.433594 222.566406 80 220.800781 80 Z M 189.230469 83.898438 C 188.585938 83.894531 187.953125 84.082031 187.417969 84.445312 C 185.949219 85.425781 185.554688 87.414062 186.539062 88.882812 C 187.519531 90.347656 189.507812 90.742188 190.976562 89.761719 C 192.441406 88.78125 192.835938 86.792969 191.855469 85.324219 C 191.269531 84.445312 190.289062 83.914062 189.230469 83.898438 Z M 66.867188 83.90625 C 65.777344 83.886719 64.753906 84.425781 64.148438 85.332031 C 63.167969 86.800781 63.5625 88.785156 65.03125 89.769531 C 66.5 90.75 68.488281 90.355469 69.46875 88.886719 C 69.941406 88.179688 70.113281 87.316406 69.949219 86.484375 C 69.785156 85.648438 69.292969 84.914062 68.585938 84.445312 C 68.078125 84.105469 67.480469 83.917969 66.867188 83.90625 Z M 128 86.398438 C 126.234375 86.398438 124.800781 87.832031 124.800781 89.601562 C 124.800781 91.367188 126.234375 92.800781 128 92.800781 C 129.765625 92.800781 131.199219 91.367188 131.199219 89.601562 C 131.199219 87.832031 129.765625 86.398438 128 86.398438 Z M 113.332031 89.320312 C 112.902344 89.316406 112.476562 89.398438 112.082031 89.5625 C 110.449219 90.238281 109.671875 92.109375 110.351562 93.742188 C 111.027344 95.375 112.898438 96.152344 114.53125 95.476562 C 116.164062 94.796875 116.9375 92.925781 116.261719 91.292969 C 115.769531 90.105469 114.617188 89.328125 113.332031 89.320312 Z M 142.761719 89.320312 C 141.445312 89.289062 140.242188 90.074219 139.738281 91.292969 C 139.0625 92.925781 139.835938 94.796875 141.46875 95.476562 C 143.101562 96.152344 144.972656 95.375 145.648438 93.742188 C 146.328125 92.109375 145.550781 90.238281 143.917969 89.5625 C 143.550781 89.410156 143.160156 89.328125 142.761719 89.320312 Z M 92.800781 89.601562 C 91.03125 89.601562 89.601562 91.03125 89.601562 92.800781 C 89.601562 94.566406 91.03125 96 92.800781 96 C 94.566406 96 96 94.566406 96 92.800781 C 96 91.03125 94.566406 89.601562 92.800781 89.601562 Z M 163.199219 89.601562 C 161.433594 89.601562 160 91.03125 160 92.800781 C 160 94.566406 161.433594 96 163.199219 96 C 164.96875 96 166.398438 94.566406 166.398438 92.800781 C 166.398438 91.03125 164.96875 89.601562 163.199219 89.601562 Z M 35.199219 92.800781 C 33.433594 92.800781 32 94.234375 32 96 C 32 97.765625 33.433594 99.199219 35.199219 99.199219 C 36.96875 99.199219 38.398438 97.765625 38.398438 96 C 38.398438 94.234375 36.96875 92.800781 35.199219 92.800781 Z M 220.800781 92.800781 C 219.121094 92.800781 217.722656 94.097656 217.605469 95.773438 C 217.601562 95.851562 217.597656 95.925781 217.601562 96 C 217.597656 97.679688 218.898438 99.074219 220.574219 99.195312 C 220.648438 99.199219 220.726562 99.199219 220.800781 99.199219 C 222.566406 99.199219 224 97.765625 224 96 C 224 94.234375 222.566406 92.800781 220.800781 92.800781 Z M 60.070312 96.632812 C 58.75 96.601562 57.546875 97.386719 57.042969 98.605469 C 56.367188 100.238281 57.140625 102.109375 58.773438 102.789062 C 60.40625 103.464844 62.28125 102.6875 62.957031 101.054688 C 63.632812 99.421875 62.859375 97.550781 61.226562 96.875 C 60.859375 96.722656 60.464844 96.640625 60.070312 96.632812 Z M 196.019531 96.632812 C 195.59375 96.628906 195.167969 96.710938 194.773438 96.875 C 193.140625 97.550781 192.367188 99.421875 193.042969 101.054688 C 193.71875 102.6875 195.59375 103.464844 197.226562 102.789062 C 198.859375 102.109375 199.632812 100.238281 198.957031 98.605469 C 198.464844 97.417969 197.304688 96.640625 196.019531 96.632812 Z M 100.894531 97.644531 C 100.027344 97.628906 99.195312 97.96875 98.582031 98.582031 C 97.332031 99.832031 97.332031 101.855469 98.582031 103.105469 C 99.179688 103.707031 99.996094 104.046875 100.847656 104.046875 C 101.695312 104.046875 102.511719 103.707031 103.113281 103.105469 C 104.363281 101.855469 104.363281 99.832031 103.113281 98.582031 C 102.523438 97.992188 101.726562 97.65625 100.894531 97.644531 Z M 155.199219 97.648438 C 154.335938 97.636719 153.5 97.976562 152.886719 98.585938 C 151.636719 99.835938 151.636719 101.863281 152.886719 103.113281 C 154.136719 104.363281 156.164062 104.363281 157.414062 103.113281 C 158.660156 101.863281 158.660156 99.835938 157.414062 98.585938 C 156.824219 98 156.03125 97.664062 155.199219 97.648438 Z M 35.199219 105.601562 C 33.433594 105.601562 32 107.03125 32 108.800781 C 32 110.566406 33.433594 112 35.199219 112 C 36.96875 112 38.398438 110.566406 38.398438 108.800781 C 38.398438 107.03125 36.96875 105.601562 35.199219 105.601562 Z M 108.800781 105.601562 C 107.03125 105.601562 105.601562 107.03125 105.601562 108.800781 C 105.601562 110.566406 107.03125 112 108.800781 112 C 110.566406 112 112 110.566406 112 108.800781 C 112 107.03125 110.566406 105.601562 108.800781 105.601562 Z M 147.199219 105.601562 C 145.433594 105.601562 144 107.03125 144 108.800781 C 144 110.566406 145.433594 112 147.199219 112 C 148.96875 112 150.398438 110.566406 150.398438 108.800781 C 150.398438 107.03125 148.96875 105.601562 147.199219 105.601562 Z M 220.800781 105.601562 C 219.121094 105.597656 217.722656 106.898438 217.605469 108.574219 C 217.601562 108.648438 217.597656 108.726562 217.601562 108.800781 C 217.597656 110.480469 218.898438 111.875 220.574219 111.992188 C 220.648438 112 220.726562 112 220.800781 112 C 222.566406 112 224 110.566406 224 108.800781 C 224 107.03125 222.566406 105.601562 220.800781 105.601562 Z M 163.507812 110.101562 C 163.078125 110.097656 162.652344 110.179688 162.257812 110.34375 C 160.625 111.019531 159.847656 112.890625 160.523438 114.523438 C 161.203125 116.15625 163.074219 116.933594 164.707031 116.257812 C 166.339844 115.578125 167.113281 113.707031 166.4375 112.074219 C 165.945312 110.886719 164.792969 110.109375 163.507812 110.101562 Z M 92.59375 110.105469 C 91.273438 110.078125 90.074219 110.863281 89.570312 112.082031 C 88.890625 113.714844 89.667969 115.585938 91.300781 116.261719 C 92.933594 116.9375 94.804688 116.164062 95.480469 114.53125 C 96.15625 112.898438 95.382812 111.027344 93.75 110.351562 C 93.382812 110.199219 92.992188 110.113281 92.59375 110.105469 Z M 55.894531 110.445312 C 54.335938 110.40625 52.980469 111.492188 52.675781 113.019531 C 52.332031 114.75 53.453125 116.4375 55.1875 116.78125 C 56.921875 117.125 58.605469 116 58.949219 114.269531 C 59.117188 113.4375 58.945312 112.570312 58.476562 111.863281 C 58.003906 111.15625 57.269531 110.664062 56.4375 110.5 C 56.257812 110.464844 56.078125 110.445312 55.894531 110.445312 Z M 200.199219 110.445312 C 199.988281 110.441406 199.777344 110.460938 199.570312 110.5 C 198.734375 110.664062 198.003906 111.152344 197.53125 111.859375 C 197.058594 112.566406 196.882812 113.429688 197.050781 114.261719 C 197.214844 115.09375 197.703125 115.828125 198.410156 116.300781 C 199.113281 116.773438 199.980469 116.945312 200.8125 116.78125 C 201.644531 116.617188 202.378906 116.128906 202.851562 115.421875 C 203.324219 114.714844 203.496094 113.851562 203.332031 113.019531 C 203.035156 111.523438 201.722656 110.445312 200.199219 110.445312 Z M 118.398438 115.199219 C 116.632812 115.199219 115.199219 116.632812 115.199219 118.398438 C 115.199219 120.167969 116.632812 121.601562 118.398438 121.601562 C 120.167969 121.601562 121.601562 120.167969 121.601562 118.398438 C 121.601562 116.632812 120.167969 115.199219 118.398438 115.199219 Z M 137.601562 115.199219 C 135.832031 115.199219 134.398438 116.632812 134.398438 118.398438 C 134.398438 120.167969 135.832031 121.601562 137.601562 121.601562 C 139.367188 121.601562 140.800781 120.167969 140.800781 118.398438 C 140.800781 116.632812 139.367188 115.199219 137.601562 115.199219 Z M 35.199219 118.398438 C 33.433594 118.398438 32 119.832031 32 121.601562 C 32 123.367188 33.433594 124.800781 35.199219 124.800781 C 36.96875 124.800781 38.398438 123.367188 38.398438 121.601562 C 38.398438 119.832031 36.96875 118.398438 35.199219 118.398438 Z M 220.800781 118.398438 C 219.121094 118.398438 217.722656 119.699219 217.605469 121.375 C 217.601562 121.449219 217.597656 121.523438 217.601562 121.601562 C 217.597656 123.28125 218.898438 124.675781 220.574219 124.792969 C 220.648438 124.796875 220.726562 124.800781 220.800781 124.800781 C 222.566406 124.800781 224 123.367188 224 121.601562 C 224 119.832031 222.566406 118.398438 220.800781 118.398438 Z M 54.398438 124.800781 C 52.632812 124.800781 51.199219 126.234375 51.199219 128 C 51.199219 129.765625 52.632812 131.199219 54.398438 131.199219 C 56.167969 131.199219 57.601562 129.765625 57.601562 128 C 57.601562 126.234375 56.167969 124.800781 54.398438 124.800781 Z M 89.601562 124.800781 C 87.832031 124.800781 86.398438 126.234375 86.398438 128 C 86.398438 129.765625 87.832031 131.199219 89.601562 131.199219 C 91.367188 131.199219 92.800781 129.765625 92.800781 128 C 92.800781 126.234375 91.367188 124.800781 89.601562 124.800781 Z M 128 124.800781 C 126.234375 124.800781 124.800781 126.234375 124.800781 128 C 124.800781 129.765625 126.234375 131.199219 128 131.199219 C 129.765625 131.199219 131.199219 129.765625 131.199219 128 C 131.199219 126.234375 129.765625 124.800781 128 124.800781 Z M 166.398438 124.800781 C 164.632812 124.800781 163.199219 126.234375 163.199219 128 C 163.199219 129.765625 164.632812 131.199219 166.398438 131.199219 C 168.167969 131.199219 169.601562 129.765625 169.601562 128 C 169.601562 126.234375 168.167969 124.800781 166.398438 124.800781 Z M 201.601562 124.800781 C 199.832031 124.800781 198.398438 126.234375 198.398438 128 C 198.398438 129.765625 199.832031 131.199219 201.601562 131.199219 C 203.367188 131.199219 204.800781 129.765625 204.800781 128 C 204.800781 126.234375 203.367188 124.800781 201.601562 124.800781 Z M 35.199219 131.199219 C 33.433594 131.199219 32 132.632812 32 134.398438 C 32 136.167969 33.433594 137.601562 35.199219 137.601562 C 36.96875 137.601562 38.398438 136.167969 38.398438 134.398438 C 38.398438 132.632812 36.96875 131.199219 35.199219 131.199219 Z M 220.800781 131.199219 C 219.121094 131.199219 217.722656 132.5 217.605469 134.175781 C 217.601562 134.25 217.597656 134.324219 217.601562 134.398438 C 217.597656 136.082031 218.898438 137.476562 220.574219 137.59375 C 220.648438 137.597656 220.726562 137.601562 220.800781 137.601562 C 222.566406 137.601562 224 136.167969 224 134.398438 C 224 132.632812 222.566406 131.199219 220.800781 131.199219 Z M 118.398438 134.398438 C 116.632812 134.398438 115.199219 135.832031 115.199219 137.601562 C 115.199219 139.367188 116.632812 140.800781 118.398438 140.800781 C 120.167969 140.800781 121.601562 139.367188 121.601562 137.601562 C 121.601562 135.832031 120.167969 134.398438 118.398438 134.398438 Z M 137.601562 134.398438 C 135.832031 134.398438 134.398438 135.832031 134.398438 137.601562 C 134.398438 139.367188 135.832031 140.800781 137.601562 140.800781 C 139.367188 140.800781 140.800781 139.367188 140.800781 137.601562 C 140.800781 135.832031 139.367188 134.398438 137.601562 134.398438 Z M 200.269531 139.15625 C 198.710938 139.117188 197.355469 140.203125 197.050781 141.730469 C 196.707031 143.464844 197.828125 145.148438 199.5625 145.492188 C 201.296875 145.839844 202.980469 144.714844 203.324219 142.980469 C 203.667969 141.25 202.546875 139.5625 200.8125 139.21875 C 200.632812 139.183594 200.453125 139.160156 200.269531 139.15625 Z M 55.832031 139.164062 C 55.617188 139.160156 55.402344 139.179688 55.195312 139.21875 C 54.359375 139.382812 53.628906 139.871094 53.15625 140.578125 C 52.683594 141.285156 52.507812 142.148438 52.675781 142.980469 C 52.839844 143.8125 53.328125 144.546875 54.035156 145.019531 C 54.738281 145.492188 55.605469 145.664062 56.4375 145.5 C 57.269531 145.335938 58.003906 144.847656 58.476562 144.140625 C 58.949219 143.433594 59.121094 142.570312 58.957031 141.738281 C 58.660156 140.246094 57.351562 139.167969 55.832031 139.164062 Z M 163.550781 139.488281 C 162.230469 139.460938 161.03125 140.242188 160.523438 141.460938 C 159.847656 143.09375 160.625 144.96875 162.257812 145.644531 C 163.890625 146.320312 165.761719 145.546875 166.4375 143.914062 C 167.113281 142.28125 166.339844 140.40625 164.707031 139.730469 C 164.339844 139.578125 163.945312 139.496094 163.550781 139.488281 Z M 92.550781 139.492188 C 92.121094 139.492188 91.695312 139.574219 91.300781 139.738281 C 89.667969 140.414062 88.890625 142.285156 89.570312 143.917969 C 90.246094 145.550781 92.117188 146.328125 93.75 145.648438 C 95.382812 144.972656 96.15625 143.101562 95.480469 141.46875 C 94.988281 140.28125 93.835938 139.503906 92.550781 139.492188 Z M 35.199219 144 C 33.433594 144 32 145.433594 32 147.199219 C 32 148.96875 33.433594 150.398438 35.199219 150.398438 C 36.96875 150.398438 38.398438 148.96875 38.398438 147.199219 C 38.398438 145.433594 36.96875 144 35.199219 144 Z M 108.800781 144 C 107.03125 144 105.601562 145.433594 105.601562 147.199219 C 105.601562 148.96875 107.03125 150.398438 108.800781 150.398438 C 110.566406 150.398438 112 148.96875 112 147.199219 C 112 145.433594 110.566406 144 108.800781 144 Z M 147.199219 144 C 145.433594 144 144 145.433594 144 147.199219 C 144 148.96875 145.433594 150.398438 147.199219 150.398438 C 148.96875 150.398438 150.398438 148.96875 150.398438 147.199219 C 150.398438 145.433594 148.96875 144 147.199219 144 Z M 220.800781 144 C 219.121094 144 217.722656 145.296875 217.605469 146.976562 C 217.601562 147.050781 217.597656 147.125 217.601562 147.199219 C 217.597656 148.878906 218.898438 150.277344 220.574219 150.394531 C 220.648438 150.398438 220.726562 150.402344 220.800781 150.398438 C 222.566406 150.398438 224 148.96875 224 147.199219 C 224 145.433594 222.566406 144 220.800781 144 Z M 100.894531 151.949219 C 100.027344 151.9375 99.195312 152.273438 98.582031 152.886719 C 97.332031 154.136719 97.332031 156.164062 98.582031 157.414062 C 99.832031 158.660156 101.855469 158.660156 103.105469 157.414062 C 104.355469 156.164062 104.355469 154.136719 103.105469 152.886719 C 102.519531 152.300781 101.726562 151.964844 100.894531 151.949219 Z M 155.195312 151.957031 C 154.332031 151.941406 153.5 152.277344 152.886719 152.886719 C 152.285156 153.488281 151.949219 154.304688 151.949219 155.152344 C 151.949219 156.003906 152.285156 156.820312 152.886719 157.417969 C 154.136719 158.667969 156.164062 158.667969 157.414062 157.417969 C 158.015625 156.820312 158.351562 156.003906 158.351562 155.152344 C 158.351562 154.304688 158.015625 153.488281 157.414062 152.886719 C 156.820312 152.300781 156.027344 151.964844 155.195312 151.957031 Z M 60.03125 152.960938 C 59.601562 152.960938 59.175781 153.042969 58.78125 153.207031 C 57.148438 153.882812 56.375 155.753906 57.050781 157.386719 C 57.726562 159.019531 59.597656 159.796875 61.230469 159.117188 C 62.863281 158.441406 63.640625 156.570312 62.960938 154.9375 C 62.46875 153.75 61.316406 152.972656 60.03125 152.960938 Z M 196.070312 152.960938 C 194.75 152.933594 193.546875 153.71875 193.042969 154.9375 C 192.367188 156.570312 193.140625 158.441406 194.773438 159.117188 C 195.558594 159.441406 196.441406 159.441406 197.226562 159.117188 C 198.011719 158.789062 198.632812 158.167969 198.957031 157.382812 C 199.632812 155.75 198.859375 153.875 197.226562 153.199219 C 196.859375 153.050781 196.464844 152.96875 196.070312 152.960938 Z M 35.199219 156.800781 C 33.433594 156.800781 32 158.234375 32 160 C 32 161.765625 33.433594 163.199219 35.199219 163.199219 C 36.96875 163.199219 38.398438 161.765625 38.398438 160 C 38.398438 158.234375 36.96875 156.800781 35.199219 156.800781 Z M 220.800781 156.800781 C 219.121094 156.800781 217.722656 158.097656 217.605469 159.773438 C 217.601562 159.851562 217.597656 159.925781 217.601562 160 C 217.597656 161.679688 218.898438 163.074219 220.574219 163.195312 C 220.648438 163.199219 220.726562 163.199219 220.800781 163.199219 C 222.566406 163.199219 224 161.765625 224 160 C 224 158.234375 222.566406 156.800781 220.800781 156.800781 Z M 92.800781 160 C 91.03125 160 89.601562 161.433594 89.601562 163.199219 C 89.601562 164.96875 91.03125 166.398438 92.800781 166.398438 C 94.566406 166.398438 96 164.96875 96 163.199219 C 96 161.433594 94.566406 160 92.800781 160 Z M 163.199219 160 C 161.433594 160 160 161.433594 160 163.199219 C 160 164.96875 161.433594 166.398438 163.199219 166.398438 C 164.96875 166.398438 166.398438 164.96875 166.398438 163.199219 C 166.398438 161.433594 164.96875 160 163.199219 160 Z M 113.382812 160.273438 C 112.0625 160.246094 110.859375 161.03125 110.355469 162.25 C 109.683594 163.882812 110.457031 165.75 112.085938 166.425781 C 113.71875 167.101562 115.59375 166.328125 116.269531 164.695312 C 116.59375 163.910156 116.59375 163.027344 116.265625 162.242188 C 115.941406 161.457031 115.316406 160.835938 114.53125 160.511719 C 114.164062 160.363281 113.777344 160.28125 113.382812 160.273438 Z M 142.71875 160.273438 C 142.292969 160.273438 141.871094 160.355469 141.476562 160.519531 C 139.84375 161.195312 139.066406 163.066406 139.742188 164.699219 C 140.421875 166.332031 142.292969 167.109375 143.925781 166.429688 C 145.558594 165.753906 146.332031 163.882812 145.65625 162.25 C 145.164062 161.0625 144.007812 160.28125 142.71875 160.273438 Z M 128 163.199219 C 126.234375 163.199219 124.800781 164.632812 124.800781 166.398438 C 124.800781 168.167969 126.234375 169.601562 128 169.601562 C 129.765625 169.601562 131.199219 168.167969 131.199219 166.398438 C 131.199219 164.632812 129.765625 163.199219 128 163.199219 Z M 189.257812 165.679688 C 188.167969 165.664062 187.140625 166.199219 186.539062 167.105469 C 185.554688 168.574219 185.949219 170.5625 187.417969 171.542969 C 188.125 172.015625 188.992188 172.1875 189.824219 172.023438 C 190.660156 171.855469 191.390625 171.363281 191.863281 170.65625 C 192.84375 169.1875 192.445312 167.199219 190.976562 166.21875 C 190.464844 165.878906 189.867188 165.691406 189.257812 165.679688 Z M 66.84375 165.6875 C 66.199219 165.679688 65.566406 165.867188 65.03125 166.226562 C 63.5625 167.207031 63.167969 169.195312 64.148438 170.664062 C 65.128906 172.132812 67.117188 172.53125 68.585938 171.550781 C 69.292969 171.078125 69.785156 170.34375 69.949219 169.511719 C 70.113281 168.675781 69.941406 167.8125 69.46875 167.105469 C 68.882812 166.230469 67.898438 165.699219 66.84375 165.6875 Z M 35.199219 169.601562 C 33.433594 169.601562 32 171.03125 32 172.800781 C 32 174.566406 33.433594 176 35.199219 176 C 36.96875 176 38.398438 174.566406 38.398438 172.800781 C 38.398438 171.03125 36.96875 169.601562 35.199219 169.601562 Z M 83.199219 169.601562 C 81.433594 169.601562 80 171.03125 80 172.800781 C 80 174.566406 81.433594 176 83.199219 176 C 84.96875 176 86.398438 174.566406 86.398438 172.800781 C 86.398438 171.03125 84.96875 169.601562 83.199219 169.601562 Z M 172.800781 169.601562 C 171.03125 169.601562 169.601562 171.03125 169.601562 172.800781 C 169.601562 174.566406 171.03125 176 172.800781 176 C 174.566406 176 176 174.566406 176 172.800781 C 176 171.03125 174.566406 169.601562 172.800781 169.601562 Z M 220.800781 169.601562 C 219.121094 169.597656 217.722656 170.898438 217.605469 172.574219 C 217.601562 172.648438 217.597656 172.726562 217.601562 172.800781 C 217.597656 174.480469 218.898438 175.875 220.574219 175.992188 C 220.648438 176 220.726562 176 220.800781 176 C 222.566406 176 224 174.566406 224 172.800781 C 224 171.03125 222.566406 169.601562 220.800781 169.601562 Z M 76 176.835938 C 75.136719 176.824219 74.304688 177.164062 73.695312 177.773438 C 72.445312 179.023438 72.445312 181.050781 73.695312 182.300781 C 74.945312 183.550781 76.96875 183.550781 78.21875 182.300781 C 79.46875 181.050781 79.46875 179.023438 78.21875 177.773438 C 77.628906 177.183594 76.832031 176.847656 76 176.835938 Z M 180.085938 176.84375 C 179.222656 176.832031 178.386719 177.167969 177.773438 177.78125 C 176.527344 179.03125 176.527344 181.054688 177.773438 182.304688 C 179.023438 183.554688 181.050781 183.554688 182.300781 182.304688 C 183.550781 181.054688 183.550781 179.03125 182.300781 177.78125 C 181.710938 177.191406 180.917969 176.855469 180.085938 176.84375 Z M 35.199219 182.398438 C 33.433594 182.398438 32 183.832031 32 185.601562 C 32 187.367188 33.433594 188.800781 35.199219 188.800781 C 36.96875 188.800781 38.398438 187.367188 38.398438 185.601562 C 38.398438 183.832031 36.96875 182.398438 35.199219 182.398438 Z M 220.800781 182.398438 C 219.121094 182.398438 217.722656 183.699219 217.605469 185.375 C 217.601562 185.449219 217.597656 185.523438 217.601562 185.601562 C 217.597656 187.28125 218.898438 188.675781 220.574219 188.792969 C 220.648438 188.796875 220.726562 188.800781 220.800781 188.800781 C 222.566406 188.800781 224 187.367188 224 185.601562 C 224 183.832031 222.566406 182.398438 220.800781 182.398438 Z M 67.199219 185.601562 C 65.433594 185.601562 64 187.03125 64 188.800781 C 64 190.566406 65.433594 192 67.199219 192 C 68.96875 192 70.398438 190.566406 70.398438 188.800781 C 70.398438 187.03125 68.96875 185.601562 67.199219 185.601562 Z M 188.800781 185.601562 C 187.03125 185.601562 185.601562 187.03125 185.601562 188.800781 C 185.601562 190.566406 187.03125 192 188.800781 192 C 190.566406 192 192 190.566406 192 188.800781 C 192 187.03125 190.566406 185.601562 188.800781 185.601562 Z M 168.929688 185.988281 C 168.285156 185.980469 167.652344 186.171875 167.117188 186.53125 C 165.652344 187.511719 165.257812 189.5 166.238281 190.96875 C 167.21875 192.4375 169.207031 192.832031 170.675781 191.851562 C 172.144531 190.867188 172.539062 188.882812 171.554688 187.414062 C 170.96875 186.535156 169.988281 186 168.929688 185.988281 Z M 87.175781 185.992188 C 86.085938 185.972656 85.0625 186.507812 84.457031 187.414062 C 83.476562 188.882812 83.871094 190.867188 85.335938 191.851562 C 86.804688 192.832031 88.792969 192.4375 89.773438 190.96875 C 90.757812 189.5 90.363281 187.511719 88.894531 186.53125 C 88.382812 186.191406 87.789062 186.003906 87.175781 185.992188 Z M 99.90625 192.792969 C 98.585938 192.765625 97.386719 193.550781 96.882812 194.769531 C 96.203125 196.402344 96.980469 198.273438 98.613281 198.949219 C 100.246094 199.625 102.117188 198.851562 102.792969 197.21875 C 103.46875 195.585938 102.695312 193.714844 101.0625 193.039062 C 100.695312 192.886719 100.304688 192.800781 99.90625 192.792969 Z M 156.195312 192.792969 C 155.765625 192.789062 155.339844 192.875 154.945312 193.039062 C 153.3125 193.714844 152.535156 195.585938 153.210938 197.21875 C 153.890625 198.851562 155.761719 199.625 157.394531 198.949219 C 159.027344 198.273438 159.800781 196.402344 159.125 194.769531 C 158.632812 193.582031 157.480469 192.804688 156.195312 192.792969 Z M 38.398438 195.199219 C 36.632812 195.199219 35.199219 196.632812 35.199219 198.398438 C 35.199219 200.167969 36.632812 201.601562 38.398438 201.601562 C 40.167969 201.601562 41.601562 200.167969 41.601562 198.398438 C 41.601562 196.632812 40.167969 195.199219 38.398438 195.199219 Z M 57.601562 195.199219 C 55.832031 195.199219 54.398438 196.632812 54.398438 198.398438 C 54.398438 200.167969 55.832031 201.601562 57.601562 201.601562 C 59.367188 201.601562 60.800781 200.167969 60.800781 198.398438 C 60.800781 196.632812 59.367188 195.199219 57.601562 195.199219 Z M 198.398438 195.199219 C 196.632812 195.199219 195.199219 196.632812 195.199219 198.398438 C 195.199219 200.167969 196.632812 201.601562 198.398438 201.601562 C 200.167969 201.601562 201.601562 200.167969 201.601562 198.398438 C 201.601562 196.632812 200.167969 195.199219 198.398438 195.199219 Z M 217.601562 195.199219 C 215.917969 195.199219 214.523438 196.5 214.40625 198.175781 C 214.402344 198.25 214.398438 198.324219 214.398438 198.398438 C 214.398438 200.082031 215.699219 201.476562 217.375 201.59375 C 217.449219 201.597656 217.523438 201.601562 217.601562 201.601562 C 219.367188 201.601562 220.800781 200.167969 220.800781 198.398438 C 220.800781 196.632812 219.367188 195.199219 217.601562 195.199219 Z M 113.730469 196.988281 C 112.171875 196.945312 110.808594 198.03125 110.507812 199.5625 C 110.339844 200.394531 110.511719 201.261719 110.984375 201.964844 C 111.457031 202.671875 112.191406 203.160156 113.023438 203.324219 C 114.757812 203.667969 116.441406 202.546875 116.789062 200.8125 C 116.953125 199.980469 116.78125 199.113281 116.308594 198.410156 C 115.835938 197.703125 115.101562 197.214844 114.269531 197.050781 C 114.089844 197.015625 113.910156 196.992188 113.730469 196.988281 Z M 142.375 196.988281 C 142.160156 196.988281 141.949219 197.007812 141.738281 197.050781 C 140.003906 197.394531 138.878906 199.078125 139.226562 200.8125 C 139.570312 202.546875 141.253906 203.667969 142.988281 203.324219 C 144.71875 202.980469 145.84375 201.296875 145.5 199.5625 C 145.203125 198.070312 143.894531 196.992188 142.375 196.988281 Z M 128 198.398438 C 126.234375 198.398438 124.800781 199.832031 124.800781 201.601562 C 124.800781 203.367188 126.234375 204.800781 128 204.800781 C 129.765625 204.800781 131.199219 203.367188 131.199219 201.601562 C 131.199219 199.832031 129.765625 198.398438 128 198.398438 Z M 44.800781 208 C 43.03125 208 41.601562 209.433594 41.601562 211.199219 C 41.601562 212.96875 43.03125 214.398438 44.800781 214.398438 C 46.566406 214.398438 48 212.96875 48 211.199219 C 48 209.433594 46.566406 208 44.800781 208 Z M 211.199219 208 C 209.519531 208 208.125 209.296875 208.007812 210.976562 C 208 211.050781 208 211.125 208 211.199219 C 208 212.878906 209.296875 214.277344 210.976562 214.394531 C 211.050781 214.398438 211.125 214.402344 211.199219 214.398438 C 212.96875 214.398438 214.398438 212.96875 214.398438 211.199219 C 214.398438 209.433594 212.96875 208 211.199219 208 Z M 57.601562 214.398438 C 55.832031 214.398438 54.398438 215.832031 54.398438 217.601562 C 54.398438 219.367188 55.832031 220.800781 57.601562 220.800781 C 59.367188 220.800781 60.800781 219.367188 60.800781 217.601562 C 60.800781 215.832031 59.367188 214.398438 57.601562 214.398438 Z M 198.398438 214.398438 C 196.71875 214.398438 195.324219 215.699219 195.207031 217.375 C 195.203125 217.449219 195.199219 217.523438 195.199219 217.601562 C 195.199219 219.28125 196.5 220.675781 198.175781 220.792969 C 198.25 220.796875 198.324219 220.800781 198.398438 220.800781 C 200.167969 220.800781 201.601562 219.367188 201.601562 217.601562 C 201.601562 215.832031 200.167969 214.398438 198.398438 214.398438 Z M 70.398438 217.601562 C 68.71875 217.597656 67.324219 218.898438 67.207031 220.574219 C 67.203125 220.648438 67.199219 220.726562 67.199219 220.800781 C 67.199219 222.566406 68.632812 224 70.398438 224 C 72.167969 224 73.601562 222.566406 73.601562 220.800781 C 73.601562 219.03125 72.167969 217.601562 70.398438 217.601562 Z M 83.199219 217.601562 C 81.519531 217.597656 80.125 218.898438 80.007812 220.574219 C 80 220.648438 80 220.726562 80 220.800781 C 80 222.480469 81.296875 223.875 82.976562 223.992188 C 83.050781 224 83.125 224 83.199219 224 C 84.96875 224 86.398438 222.566406 86.398438 220.800781 C 86.398438 219.03125 84.96875 217.601562 83.199219 217.601562 Z M 96 217.601562 C 94.320312 217.597656 92.925781 218.898438 92.804688 220.574219 C 92.800781 220.648438 92.800781 220.726562 92.800781 220.800781 C 92.800781 222.480469 94.097656 223.875 95.773438 223.992188 C 95.851562 224 95.925781 224 96 224 C 97.765625 224 99.199219 222.566406 99.199219 220.800781 C 99.199219 219.03125 97.765625 217.601562 96 217.601562 Z M 108.800781 217.601562 C 107.121094 217.597656 105.722656 218.898438 105.605469 220.574219 C 105.601562 220.648438 105.597656 220.726562 105.601562 220.800781 C 105.597656 222.480469 106.898438 223.875 108.574219 223.992188 C 108.648438 224 108.726562 224 108.800781 224 C 110.566406 224 112 222.566406 112 220.800781 C 112 219.03125 110.566406 217.601562 108.800781 217.601562 Z M 121.601562 217.601562 C 119.917969 217.597656 118.523438 218.898438 118.40625 220.574219 C 118.402344 220.648438 118.398438 220.726562 118.398438 220.800781 C 118.398438 222.480469 119.699219 223.875 121.375 223.992188 C 121.449219 224 121.523438 224 121.601562 224 C 123.367188 224 124.800781 222.566406 124.800781 220.800781 C 124.800781 219.03125 123.367188 217.601562 121.601562 217.601562 Z M 134.398438 217.601562 C 132.71875 217.597656 131.324219 218.898438 131.207031 220.574219 C 131.203125 220.648438 131.199219 220.726562 131.199219 220.800781 C 131.199219 222.480469 132.5 223.875 134.175781 223.992188 C 134.25 224 134.324219 224 134.398438 224 C 136.167969 224 137.601562 222.566406 137.601562 220.800781 C 137.601562 219.03125 136.167969 217.601562 134.398438 217.601562 Z M 147.199219 217.601562 C 145.519531 217.597656 144.125 218.898438 144.007812 220.574219 C 144 220.648438 144 220.726562 144 220.800781 C 144 222.480469 145.296875 223.875 146.976562 223.992188 C 147.050781 224 147.125 224 147.199219 224 C 148.96875 224 150.398438 222.566406 150.398438 220.800781 C 150.398438 219.03125 148.96875 217.601562 147.199219 217.601562 Z M 160 217.601562 C 158.320312 217.597656 156.925781 218.898438 156.804688 220.574219 C 156.800781 220.648438 156.800781 220.726562 156.800781 220.800781 C 156.800781 222.480469 158.097656 223.875 159.773438 223.992188 C 159.851562 224 159.925781 224 160 224 C 161.765625 224 163.199219 222.566406 163.199219 220.800781 C 163.199219 219.03125 161.765625 217.601562 160 217.601562 Z M 172.800781 217.601562 C 171.121094 217.597656 169.722656 218.898438 169.605469 220.574219 C 169.601562 220.648438 169.597656 220.726562 169.601562 220.800781 C 169.597656 222.480469 170.898438 223.875 172.574219 223.992188 C 172.648438 224 172.726562 224 172.800781 224 C 174.566406 224 176 222.566406 176 220.800781 C 176 219.03125 174.566406 217.601562 172.800781 217.601562 Z M 185.601562 217.601562 C 183.917969 217.597656 182.523438 218.898438 182.40625 220.574219 C 182.402344 220.648438 182.398438 220.726562 182.398438 220.800781 C 182.398438 222.480469 183.699219 223.875 185.375 223.992188 C 185.449219 224 185.523438 224 185.601562 224 C 187.367188 224 188.800781 222.566406 188.800781 220.800781 C 188.800781 219.03125 187.367188 217.601562 185.601562 217.601562 Z M 185.601562 217.601562 "/>
</g>
</svg>
