<?xml version="1.0" standalone="no"?>
<!DOCTYPE svg PUBLIC "-//W3C//DTD SVG 20010904//EN"
 "http://www.w3.org/TR/2001/REC-SVG-20010904/DTD/svg10.dtd">
<svg version="1.0" xmlns="http://www.w3.org/2000/svg"
 width="512.000000pt" height="512.000000pt" viewBox="0 0 512.000000 512.000000"
 preserveAspectRatio="xMidYMid meet">
<metadata>
Created by potrace 1.14, written by Peter Selinger 2001-2017
</metadata>
<g transform="translate(0.000000,512.000000) scale(0.100000,-0.100000)"
fill="#000000" stroke="none">
<path d="M2455 4805 c-55 -40 -131 -95 -170 -122 -38 -26 -75 -52 -81 -58 -7
-5 -179 -129 -384 -275 l-372 -265 196 -3 196 -2 0 -599 0 -599 -167 -4 c-159
-3 -170 -4 -203 -27 -80 -55 -102 -98 -108 -207 l-4 -80 -58 -12 c-101 -21
-130 -56 -245 -299 -54 -114 -130 -273 -168 -353 -38 -80 -82 -172 -97 -205
-15 -33 -57 -122 -93 -197 l-66 -138 -138 -1 c-179 -1 -232 -20 -292 -110 -28
-40 -34 -60 -39 -118 -2 -38 -2 -85 2 -105 13 -70 -44 -66 1029 -66 l965 0 4
-208 c4 -194 5 -211 29 -264 39 -90 106 -161 194 -204 66 -33 83 -37 157 -38
46 0 97 2 113 5 105 22 215 115 268 226 l32 68 3 207 4 208 934 0 935 0 24 25
25 24 0 780 c0 486 -4 789 -10 806 -18 48 -89 56 -130 15 -17 -17 -20 -34 -20
-115 l0 -95 -200 0 -200 0 0 84 c0 103 -10 134 -50 147 l-30 11 0 479 0 479
-40 0 c-46 0 -51 13 -16 41 55 44 72 153 32 214 -52 79 -204 85 -261 11 -48
-63 -43 -155 11 -213 19 -20 34 -40 34 -44 0 -5 -18 -9 -40 -9 l-40 0 0 -98 0
-98 -52 -24 c-167 -75 -348 -78 -515 -8 l-73 30 0 339 0 339 197 2 197 3 -270
192 c-148 105 -291 208 -319 228 -27 20 -138 99 -245 175 -107 76 -213 152
-236 169 -23 17 -43 31 -45 30 -2 0 -49 -33 -104 -74z m1000 -1631 c28 -4 53
-7 58 -6 4 1 7 -135 7 -303 l0 -305 -120 0 -120 0 0 334 0 334 63 -23 c34 -13
85 -27 112 -31z m465 -284 l0 -330 -120 0 -120 0 0 305 c0 168 3 304 8 303 18
-4 116 15 159 32 27 11 54 19 61 20 9 0 12 -72 12 -330z m-2400 -1210 l0 -560
-301 0 c-165 0 -298 3 -296 8 2 4 11 23 20 42 24 55 268 569 350 740 17 36 32
67 32 70 1 3 29 62 63 133 l61 127 35 0 36 0 0 -560z m640 0 l0 -560 -160 0
-160 0 0 560 0 560 160 0 160 0 0 -560z m1120 0 l0 -560 -160 0 -160 0 0 560
0 560 160 0 160 0 0 -560z m880 0 l0 -560 -280 0 -280 0 0 560 0 560 280 0
280 0 0 -560z m560 480 l0 -80 -200 0 -200 0 0 80 0 80 200 0 200 0 0 -80z m0
-320 l0 -80 -200 0 -200 0 0 80 0 80 200 0 200 0 0 -80z m0 -320 l0 -80 -200
0 -200 0 0 80 0 80 200 0 200 0 0 -80z m0 -320 l0 -80 -200 0 -200 0 0 80 0
80 200 0 200 0 0 -80z"/>
</g>
</svg>
